<mxfile host="app.diagrams.net" modified="2024-06-06T08:54:59.868Z" agent="Mozilla/5.0 (Windows NT 10.0; Win64; x64) AppleWebKit/537.36 (KHTML, like Gecko) Chrome/124.0.0.0 Safari/537.36" etag="_t51QNPgK3gTP6e6lkli" version="24.4.14" type="github">
  <diagram id="-nUlbiPWIa_YUagmwYu6" name="第 1 页">
    <mxGraphModel dx="2074" dy="1098" grid="1" gridSize="10" guides="1" tooltips="1" connect="1" arrows="1" fold="1" page="1" pageScale="1" pageWidth="1200" pageHeight="1920" math="0" shadow="0">
      <root>
        <mxCell id="0" />
        <mxCell id="1" parent="0" />
        <mxCell id="xfbAxuXr3Si1YzYXhxK_-109" value="基础架构服务层" style="shape=folder;fontStyle=1;spacingTop=10;tabWidth=40;tabHeight=14;tabPosition=left;html=1;fontSize=18;verticalAlign=top;fillColor=#fff2cc;strokeColor=#d6b656;" parent="1" vertex="1">
          <mxGeometry x="41" y="1260" width="1118.5" height="140" as="geometry" />
        </mxCell>
        <mxCell id="xfbAxuXr3Si1YzYXhxK_-108" value="技术服务层" style="shape=folder;fontStyle=1;spacingTop=10;tabWidth=40;tabHeight=14;tabPosition=left;html=1;fontSize=18;verticalAlign=top;fillColor=#fff2cc;strokeColor=#d6b656;" parent="1" vertex="1">
          <mxGeometry x="41" y="1010" width="1118.5" height="170" as="geometry" />
        </mxCell>
        <mxCell id="xfbAxuXr3Si1YzYXhxK_-104" value="基础业务服务层" style="shape=folder;fontStyle=1;spacingTop=10;tabWidth=40;tabHeight=14;tabPosition=left;html=1;fontSize=18;verticalAlign=top;fillColor=#fff2cc;strokeColor=#d6b656;" parent="1" vertex="1">
          <mxGeometry x="40" y="770" width="1118.5" height="170" as="geometry" />
        </mxCell>
        <mxCell id="xfbAxuXr3Si1YzYXhxK_-96" style="edgeStyle=orthogonalEdgeStyle;rounded=0;orthogonalLoop=1;jettySize=auto;html=1;exitX=0.5;exitY=1;exitDx=0;exitDy=0;entryX=0.5;entryY=0;entryDx=0;entryDy=0;fontSize=16;" parent="1" edge="1">
          <mxGeometry relative="1" as="geometry">
            <mxPoint x="599" y="940" as="sourcePoint" />
            <mxPoint x="599" y="1020" as="targetPoint" />
          </mxGeometry>
        </mxCell>
        <mxCell id="xfbAxuXr3Si1YzYXhxK_-76" value="JCYW-01&#xa;静态参数组件" style="shape=module;align=center;spacingLeft=20;align=center;verticalAlign=middle;whiteSpace=wrap;labelPosition=center;verticalLabelPosition=middle;fillColor=#dae8fc;strokeColor=#6c8ebf;" parent="1" vertex="1">
          <mxGeometry x="78.5" y="840" width="110" height="50" as="geometry" />
        </mxCell>
        <mxCell id="xfbAxuXr3Si1YzYXhxK_-77" value="JCYW-02&#xa;动态参数组件" style="shape=module;align=center;spacingLeft=20;align=center;verticalAlign=middle;whiteSpace=wrap;labelPosition=center;verticalLabelPosition=middle;fillColor=#dae8fc;strokeColor=#6c8ebf;" parent="1" vertex="1">
          <mxGeometry x="214.5" y="840" width="110" height="50" as="geometry" />
        </mxCell>
        <mxCell id="xfbAxuXr3Si1YzYXhxK_-78" value="JCYW-03&#xa;数据缓存组件" style="shape=module;align=center;spacingLeft=20;align=center;verticalAlign=middle;whiteSpace=wrap;labelPosition=center;verticalLabelPosition=middle;fillColor=#dae8fc;strokeColor=#6c8ebf;" parent="1" vertex="1">
          <mxGeometry x="349.5" y="840" width="110" height="50" as="geometry" />
        </mxCell>
        <mxCell id="xfbAxuXr3Si1YzYXhxK_-79" value="JCYW-04&#xa;日志组件" style="shape=module;align=center;spacingLeft=20;align=center;verticalAlign=middle;whiteSpace=wrap;labelPosition=center;verticalLabelPosition=middle;fillColor=#dae8fc;strokeColor=#6c8ebf;" parent="1" vertex="1">
          <mxGeometry x="485.5" y="840" width="110" height="50" as="geometry" />
        </mxCell>
        <mxCell id="xfbAxuXr3Si1YzYXhxK_-81" value="JCYW-05&#xa;系统配置组件" style="shape=module;align=center;spacingLeft=20;align=center;verticalAlign=middle;whiteSpace=wrap;labelPosition=center;verticalLabelPosition=middle;fillColor=#dae8fc;strokeColor=#6c8ebf;" parent="1" vertex="1">
          <mxGeometry x="621.5" y="840" width="110" height="50" as="geometry" />
        </mxCell>
        <mxCell id="xfbAxuXr3Si1YzYXhxK_-93" value="JSFW-01&#xa;Java运行组件" style="shape=module;align=center;spacingLeft=20;align=center;verticalAlign=middle;whiteSpace=wrap;labelPosition=center;verticalLabelPosition=middle;fillColor=#dae8fc;strokeColor=#6c8ebf;" parent="1" vertex="1">
          <mxGeometry x="210" y="1080" width="110" height="50" as="geometry" />
        </mxCell>
        <mxCell id="xfbAxuXr3Si1YzYXhxK_-94" value="JSFW-02&#xa;Js处理组件" style="shape=module;align=center;spacingLeft=20;align=center;verticalAlign=middle;whiteSpace=wrap;labelPosition=center;verticalLabelPosition=middle;fillColor=#dae8fc;strokeColor=#6c8ebf;" parent="1" vertex="1">
          <mxGeometry x="348" y="1080" width="110" height="50" as="geometry" />
        </mxCell>
        <mxCell id="xfbAxuXr3Si1YzYXhxK_-98" value="JCJG-01&#xa;中间件服务" style="shape=module;align=center;spacingLeft=20;align=center;verticalAlign=middle;whiteSpace=wrap;labelPosition=center;verticalLabelPosition=middle;fillColor=#dae8fc;strokeColor=#6c8ebf;" parent="1" vertex="1">
          <mxGeometry x="339" y="1320" width="110" height="50" as="geometry" />
        </mxCell>
        <mxCell id="xfbAxuXr3Si1YzYXhxK_-99" value="JCJG-02&#xa;负载均衡服务" style="shape=module;align=center;spacingLeft=20;align=center;verticalAlign=middle;whiteSpace=wrap;labelPosition=center;verticalLabelPosition=middle;fillColor=#dae8fc;strokeColor=#6c8ebf;" parent="1" vertex="1">
          <mxGeometry x="475" y="1320" width="110" height="50" as="geometry" />
        </mxCell>
        <mxCell id="xfbAxuXr3Si1YzYXhxK_-110" value="" style="endArrow=classic;html=1;rounded=0;fontSize=18;exitX=0.498;exitY=1.005;exitDx=0;exitDy=0;exitPerimeter=0;entryX=0.498;entryY=0.082;entryDx=0;entryDy=0;entryPerimeter=0;" parent="1" source="xfbAxuXr3Si1YzYXhxK_-108" target="xfbAxuXr3Si1YzYXhxK_-109" edge="1">
          <mxGeometry width="50" height="50" relative="1" as="geometry">
            <mxPoint x="578.5" y="1240" as="sourcePoint" />
            <mxPoint x="628.5" y="1190" as="targetPoint" />
          </mxGeometry>
        </mxCell>
        <mxCell id="xfbAxuXr3Si1YzYXhxK_-111" value="JCJG-03&#xa;数据库服务" style="shape=module;align=center;spacingLeft=20;align=center;verticalAlign=middle;whiteSpace=wrap;labelPosition=center;verticalLabelPosition=middle;fillColor=#dae8fc;strokeColor=#6c8ebf;" parent="1" vertex="1">
          <mxGeometry x="611.5" y="1320" width="110" height="50" as="geometry" />
        </mxCell>
        <mxCell id="xfbAxuXr3Si1YzYXhxK_-112" value="JCJG-04&#xa;缓存服务" style="shape=module;align=center;spacingLeft=20;align=center;verticalAlign=middle;whiteSpace=wrap;labelPosition=center;verticalLabelPosition=middle;fillColor=#dae8fc;strokeColor=#6c8ebf;" parent="1" vertex="1">
          <mxGeometry x="751.5" y="1320" width="110" height="50" as="geometry" />
        </mxCell>
        <mxCell id="2LXU_3X6bgzTIwt-wgfQ-2" value="JCYW-06&#xa;授权管理配置" style="shape=module;align=center;spacingLeft=20;align=center;verticalAlign=middle;whiteSpace=wrap;labelPosition=center;verticalLabelPosition=middle;fillColor=#dae8fc;strokeColor=#6c8ebf;" parent="1" vertex="1">
          <mxGeometry x="754.5" y="840" width="110" height="50" as="geometry" />
        </mxCell>
        <mxCell id="2LXU_3X6bgzTIwt-wgfQ-3" value="JCYW-07&#xa;消息管理组件" style="shape=module;align=center;spacingLeft=20;align=center;verticalAlign=middle;whiteSpace=wrap;labelPosition=center;verticalLabelPosition=middle;fillColor=#dae8fc;strokeColor=#6c8ebf;" parent="1" vertex="1">
          <mxGeometry x="888.5" y="840" width="110" height="50" as="geometry" />
        </mxCell>
        <mxCell id="2LXU_3X6bgzTIwt-wgfQ-4" value="JCYW-08&#xa;算法分析组件" style="shape=module;align=center;spacingLeft=20;align=center;verticalAlign=middle;whiteSpace=wrap;labelPosition=center;verticalLabelPosition=middle;fillColor=#dae8fc;strokeColor=#6c8ebf;" parent="1" vertex="1">
          <mxGeometry x="1018.5" y="840" width="110" height="50" as="geometry" />
        </mxCell>
        <mxCell id="hBMi0_a7IfTJYzLY-hhf-3" value="JSFW-03&#xa;文件在线预览" style="shape=module;align=center;spacingLeft=20;align=center;verticalAlign=middle;whiteSpace=wrap;labelPosition=center;verticalLabelPosition=middle;fillColor=#dae8fc;strokeColor=#6c8ebf;" parent="1" vertex="1">
          <mxGeometry x="486" y="1080" width="110" height="50" as="geometry" />
        </mxCell>
        <mxCell id="VTKT0HyP7iC7CDMeWIU3-1" value="JSFW-04&#xa;用户信息" style="shape=module;align=center;spacingLeft=20;align=center;verticalAlign=middle;whiteSpace=wrap;labelPosition=center;verticalLabelPosition=middle;fillColor=#dae8fc;strokeColor=#6c8ebf;" parent="1" vertex="1">
          <mxGeometry x="625" y="1080" width="110" height="50" as="geometry" />
        </mxCell>
        <mxCell id="VTKT0HyP7iC7CDMeWIU3-2" value="JSFW-05&#xa;非结构化数据" style="shape=module;align=center;spacingLeft=20;align=center;verticalAlign=middle;whiteSpace=wrap;labelPosition=center;verticalLabelPosition=middle;fillColor=#dae8fc;strokeColor=#6c8ebf;" parent="1" vertex="1">
          <mxGeometry x="763" y="1080" width="110" height="50" as="geometry" />
        </mxCell>
        <mxCell id="VTKT0HyP7iC7CDMeWIU3-3" value="JSFW-06&#xa;OCR识别" style="shape=module;align=center;spacingLeft=20;align=center;verticalAlign=middle;whiteSpace=wrap;labelPosition=center;verticalLabelPosition=middle;fillColor=#dae8fc;strokeColor=#6c8ebf;" parent="1" vertex="1">
          <mxGeometry x="901" y="1080" width="110" height="50" as="geometry" />
        </mxCell>
      </root>
    </mxGraphModel>
  </diagram>
</mxfile>
